<svg width="10" height="10" viewBox="0 0 10 10" fill="none" xmlns="http://www.w3.org/2000/svg">
    <path d="M4.27084 1.66669C4.27084 1.53781 4.19176 1.42216 4.07163 1.37544C3.95153 1.32872 3.81506 1.36052 3.72799 1.45552L1.43632 3.95552C1.35258 4.04687 1.33073 4.17909 1.38063 4.29251C1.43054 4.40596 1.54275 4.47917 1.66668 4.47917H8.33334C8.50592 4.47917 8.64584 4.33926 8.64584 4.16667C8.64584 3.9941 8.50592 3.85419 8.33334 3.85419H4.27084V1.66669Z" fill="#1C274C"/>
    <path d="M5.72916 8.33333V6.14583H1.66667C1.49408 6.14583 1.35417 6.00591 1.35417 5.83333C1.35417 5.66074 1.49408 5.52083 1.66667 5.52083H8.33333C8.45725 5.52083 8.5695 5.59408 8.61937 5.70749C8.66929 5.82095 8.64745 5.95316 8.5637 6.04449L6.27204 8.54449C6.18495 8.63949 6.0485 8.67129 5.92837 8.62458C5.80829 8.57787 5.72916 8.4622 5.72916 8.33333Z" fill="#1C274C"/>
</svg>
